<svg width="298" height="305" viewBox="0 0 298 305" fill="none" xmlns="http://www.w3.org/2000/svg">
<rect width="298" height="305" rx="40" fill="url(#paint0_linear_217_177)"/>
<path d="M212.912 119.235C202.324 121.702 197.376 133.013 199.202 143.73C199.985 148.319 200.42 152.922 200.42 157.499C200.42 165.104 199.259 172.191 197.287 178.746C192.187 195.698 202.807 215.986 216.452 204.708C217.909 203.504 219.333 202.201 220.716 200.792C237.635 183.564 244.445 154.569 247.179 134.969C248.741 123.77 239.616 114.664 228.428 116.309C223.699 117.004 218.426 117.95 212.912 119.235Z" fill="white"/>
<path d="M98.7978 143.715C100.625 132.999 95.6777 121.689 85.0912 119.22C79.58 117.935 74.3084 116.988 69.5791 116.292C58.3887 114.644 49.2591 123.75 50.8221 134.953C53.5566 154.553 60.3676 183.542 77.2842 200.768C78.6666 202.176 80.0897 203.479 81.546 204.683C95.1906 215.963 105.805 195.677 100.709 178.722C98.7393 172.168 97.5805 165.081 97.5805 157.475C97.5805 152.903 98.0155 148.302 98.7978 143.715Z" fill="white"/>
<path d="M189.556 157.475C189.556 133.315 174.493 108.129 162.853 92.2721C156.079 83.0454 143.017 83.0454 136.244 92.2721C124.603 108.129 109.541 133.315 109.541 157.475C109.541 183.103 126.462 201.203 138.298 210.757C144.232 215.657 152.668 216.112 159.096 211.879L160.799 210.757C172.635 201.203 189.556 183.103 189.556 157.475Z" fill="white"/>
<defs>
<linearGradient id="paint0_linear_217_177" x1="149" y1="0" x2="149" y2="305" gradientUnits="userSpaceOnUse">
<stop stop-color="#08203E"/>
<stop offset="1" stop-color="#6036E9"/>
</linearGradient>
</defs>
</svg>
